<?xml version="1.0" encoding="UTF-8" standalone="no" ?>
<!DOCTYPE svg PUBLIC "-//W3C//DTD SVG 1.1//EN" "http://www.w3.org/Graphics/SVG/1.1/DTD/svg11.dtd">
<svg xmlns="http://www.w3.org/2000/svg" xmlns:xlink="http://www.w3.org/1999/xlink" version="1.1" width="50" height="50" viewBox="0 0 50 50" xml:space="preserve">
<desc>Created with Fabric.js 4.6.0</desc>
<defs>
</defs>
<g transform="matrix(1 0 0 1 24.98 24.99)" id="6LQLW8DQo7bCws_HmSWQ6"  >
<path style="stroke: rgb(0,0,0); stroke-width: 0.5; stroke-dasharray: none; stroke-linecap: butt; stroke-dashoffset: 0; stroke-linejoin: miter; stroke-miterlimit: 4; fill: none; fill-rule: nonzero; opacity: 1;" vector-effect="non-scaling-stroke"  transform=" translate(-25, -24.99)" d="M 27.00158 0 L 27.00158 0.07904 C 26.66976 0.05276 26.33611 0.03294 26.000790000000002 0.01974 L 25.000000000000004 0 z M 27.00158 24.00002 L 50 24.00002 C 49.50055 11.329809999999998 39.54925 0.9939999999999998 27.00158 0 z M 27.00158 26.00002 L 27.00158 49.92102 C 39.54925 48.92724 49.50031 38.67023 50 26.00002 z M 27.00158 49.92102 L 25 49.98028 L 26.00079 49.9803 C 26.336109999999998 49.9671 26.66976 49.9473 27.001579999999997 49.92102 z M 25 26.00002 L 0 26.00002 C 0.51266 39.005269999999996 10.98369 49.46778 23.99921 49.98028 L 23.99921 49.98028 L 25 49.98028 z M 25 24.00002 L 25 0 L 23.99921 0 L 23.99921 0.01976 C 10.983670000000002 0.532 0.5129100000000015 10.994769999999999 0 24.000020000000003 z M 0 24.00002 L 0 26.00002 L 0 26.00002 z M 50 26.00002 L 50 24.00002 L 50 24.00002 z" stroke-linecap="round" />
</g>
</svg>